<?xml version="1.0" encoding="utf-8"?>
<svg viewBox="0 0 256 256" xmlns="http://www.w3.org/2000/svg">
  <path d="M 31.381 129.291 L 16.351 129.291 L 16.351 125.231 L 20.541 124.441 L 20.541 95.781 L 16.351 94.991 L 16.351 90.901 L 31.381 90.901 L 31.381 94.991 L 27.191 95.781 L 27.191 107.751 L 43.981 107.751 L 43.981 95.781 L 39.791 94.991 L 39.791 90.901 L 43.981 90.901 L 50.601 90.901 L 54.791 90.901 L 54.791 94.991 L 50.601 95.781 L 50.601 124.441 L 54.791 125.231 L 54.791 129.291 L 39.791 129.291 L 39.791 125.231 L 43.981 124.441 L 43.981 112.921 L 27.191 112.921 L 27.191 124.441 L 31.381 125.231 L 31.381 129.291 Z M 89.171 129.291 L 59.271 129.291 L 59.271 125.231 L 63.461 124.441 L 63.461 95.781 L 59.271 94.991 L 59.271 90.901 L 88.511 90.901 L 88.511 100.791 L 83.341 100.791 L 82.901 96.011 L 70.111 96.011 L 70.111 106.881 L 83.581 106.881 L 83.581 112.021 L 70.111 112.021 L 70.111 124.231 L 83.611 124.231 L 84.061 119.351 L 89.171 119.351 L 89.171 129.291 Z M 112.63 129.841 C 108.85 129.841 105.62 129.038 102.94 127.431 C 100.26 125.824 98.213 123.574 96.8 120.681 C 95.386 117.788 94.68 114.428 94.68 110.601 L 94.68 109.621 C 94.68 105.874 95.383 102.558 96.79 99.671 C 98.196 96.778 100.206 94.501 102.82 92.841 C 105.44 91.181 108.57 90.351 112.21 90.351 C 114.756 90.351 117.12 90.728 119.3 91.481 C 121.48 92.234 123.38 93.298 125 94.671 L 125 103.531 L 119.94 103.531 L 119.25 97.601 C 118.67 97.174 118.03 96.814 117.33 96.521 C 116.623 96.221 115.853 95.991 115.02 95.831 C 114.186 95.671 113.276 95.591 112.29 95.591 C 109.99 95.591 108.016 96.171 106.37 97.331 C 104.73 98.491 103.476 100.118 102.61 102.211 C 101.75 104.304 101.32 106.758 101.32 109.571 L 101.32 110.601 C 101.32 113.514 101.776 116.021 102.69 118.121 C 103.603 120.221 104.92 121.834 106.64 122.961 C 108.353 124.088 110.403 124.651 112.79 124.651 C 113.95 124.651 115.096 124.514 116.23 124.241 C 117.363 123.968 118.363 123.611 119.23 123.171 L 119.94 117.791 L 124.95 117.791 L 124.95 126.601 C 123.47 127.568 121.663 128.351 119.53 128.951 C 117.39 129.544 115.09 129.841 112.63 129.841 Z M 162.435 95.701 L 139.975 119.161 L 136.495 115.161 L 155.055 95.431 L 155.135 95.331 L 151.735 94.991 L 151.735 90.901 L 166.045 90.901 L 166.045 94.991 L 162.435 95.701 Z M 145.115 129.291 L 130.215 129.291 L 130.215 125.231 L 134.405 124.441 L 134.405 95.781 L 130.215 94.991 L 130.215 90.901 L 145.115 90.901 L 145.115 94.991 L 141.055 95.781 L 141.055 124.441 L 145.115 125.231 L 145.115 129.291 Z M 167.415 129.291 L 152.575 129.291 L 152.575 125.231 L 155.975 124.891 L 155.975 124.861 L 145.855 110.891 L 150.015 106.221 L 163.755 124.571 L 167.415 125.231 L 167.415 129.291 Z M 201.374 129.291 L 171.474 129.291 L 171.474 125.231 L 175.664 124.441 L 175.664 95.781 L 171.474 94.991 L 171.474 90.901 L 200.714 90.901 L 200.714 100.791 L 195.544 100.791 L 195.104 96.011 L 182.314 96.011 L 182.314 106.881 L 195.784 106.881 L 195.784 112.021 L 182.314 112.021 L 182.314 124.231 L 195.814 124.231 L 196.264 119.351 L 201.374 119.351 L 201.374 129.291 Z M 221.963 129.291 L 206.933 129.291 L 206.933 125.231 L 211.123 124.441 L 211.123 95.781 L 206.933 94.991 L 206.933 90.901 L 224.683 90.901 C 227.563 90.901 230.023 91.344 232.063 92.231 C 234.103 93.118 235.659 94.388 236.733 96.041 C 237.799 97.694 238.333 99.691 238.333 102.031 C 238.333 104.278 237.803 106.238 236.743 107.911 C 235.676 109.578 234.189 110.874 232.283 111.801 C 230.376 112.721 228.139 113.198 225.573 113.231 L 217.773 113.311 L 217.773 124.441 L 221.963 125.231 L 221.963 129.291 Z M 240.023 129.291 L 231.903 129.291 L 224.573 111.621 L 230.793 110.601 L 237.023 124.541 L 240.023 125.181 L 240.023 129.291 Z M 217.773 96.041 L 217.773 108.141 L 224.393 108.141 C 226.886 108.141 228.729 107.638 229.923 106.631 C 231.123 105.618 231.723 104.144 231.723 102.211 C 231.723 100.331 231.143 98.834 229.983 97.721 C 228.816 96.601 227.049 96.041 224.683 96.041 L 217.773 96.041 Z" style="fill: rgb(19, 60, 85); text-transform: uppercase; white-space: pre;"/>
  <path d="M 27.238 165.649 C 24.745 165.649 22.661 165.102 20.988 164.009 C 19.321 162.916 18.068 161.416 17.228 159.509 C 16.395 157.609 15.978 155.452 15.978 153.039 L 15.978 152.679 C 15.978 150.239 16.415 148.072 17.288 146.179 C 18.168 144.279 19.428 142.782 21.068 141.689 C 22.708 140.596 24.668 140.049 26.948 140.049 C 28.555 140.049 30.025 140.299 31.358 140.799 C 32.691 141.299 33.795 141.936 34.668 142.709 L 34.668 148.079 L 31.988 148.079 L 31.628 144.149 C 31.261 143.862 30.845 143.622 30.378 143.429 C 29.905 143.236 29.378 143.089 28.798 142.989 C 28.225 142.882 27.601 142.829 26.928 142.829 C 25.301 142.829 23.925 143.249 22.798 144.089 C 21.665 144.929 20.808 146.082 20.228 147.549 C 19.648 149.022 19.358 150.719 19.358 152.639 L 19.358 153.039 C 19.358 155.119 19.668 156.899 20.288 158.379 C 20.908 159.852 21.815 160.976 23.008 161.749 C 24.201 162.522 25.651 162.909 27.358 162.909 C 28.158 162.909 28.938 162.812 29.698 162.619 C 30.465 162.426 31.098 162.176 31.598 161.869 L 31.968 158.399 L 34.608 158.399 L 34.608 163.799 C 33.668 164.379 32.551 164.832 31.258 165.159 C 29.958 165.486 28.618 165.649 27.238 165.649 Z M 48.891 165.649 C 47.284 165.649 45.841 165.342 44.561 164.729 C 43.287 164.109 42.204 163.239 41.311 162.119 C 40.411 160.999 39.727 159.669 39.261 158.129 C 38.787 156.589 38.551 154.892 38.551 153.039 L 38.551 152.679 C 38.551 150.832 38.787 149.136 39.261 147.589 C 39.727 146.049 40.411 144.716 41.311 143.589 C 42.204 142.456 43.287 141.582 44.561 140.969 C 45.841 140.356 47.284 140.049 48.891 140.049 C 50.584 140.049 52.074 140.356 53.361 140.969 C 54.647 141.582 55.727 142.456 56.601 143.589 C 57.474 144.716 58.134 146.049 58.581 147.589 C 59.021 149.136 59.241 150.832 59.241 152.679 L 59.241 153.039 C 59.241 154.892 59.021 156.589 58.581 158.129 C 58.134 159.669 57.474 160.999 56.601 162.119 C 55.727 163.239 54.647 164.109 53.361 164.729 C 52.074 165.342 50.584 165.649 48.891 165.649 Z M 48.891 162.849 C 50.537 162.849 51.871 162.439 52.891 161.619 C 53.911 160.799 54.661 159.649 55.141 158.169 C 55.621 156.696 55.861 154.986 55.861 153.039 L 55.861 152.639 C 55.861 150.706 55.617 149.006 55.131 147.539 C 54.651 146.079 53.897 144.936 52.871 144.109 C 51.844 143.282 50.517 142.869 48.891 142.869 C 47.397 142.869 46.131 143.286 45.091 144.119 C 44.057 144.946 43.271 146.092 42.731 147.559 C 42.197 149.026 41.931 150.719 41.931 152.639 L 41.931 153.039 C 41.931 154.972 42.197 156.676 42.731 158.149 C 43.271 159.629 44.057 160.782 45.091 161.609 C 46.131 162.436 47.397 162.849 48.891 162.849 Z M 71.496 165.289 L 62.556 165.289 L 62.556 163.139 L 65.336 162.659 L 65.336 143.059 L 62.556 142.579 L 62.556 140.409 L 65.336 140.409 L 68.736 140.409 L 80.946 159.799 L 81.046 159.769 L 81.046 143.059 L 77.986 142.579 L 77.986 140.409 L 84.136 140.409 L 86.926 140.409 L 86.926 142.579 L 84.136 143.059 L 84.136 165.289 L 81.066 165.289 L 68.536 145.789 L 68.436 145.819 L 68.436 162.659 L 71.496 163.139 L 71.496 165.289 Z M 99.399 165.649 C 97.879 165.649 96.419 165.426 95.019 164.979 C 93.619 164.539 92.282 163.856 91.009 162.929 L 91.009 157.619 L 93.619 157.619 L 94.179 161.529 C 94.919 161.982 95.722 162.336 96.589 162.589 C 97.456 162.842 98.392 162.969 99.399 162.969 C 100.539 162.969 101.502 162.792 102.289 162.439 C 103.082 162.092 103.689 161.612 104.109 160.999 C 104.536 160.386 104.749 159.669 104.749 158.849 C 104.749 158.082 104.566 157.409 104.199 156.829 C 103.832 156.249 103.232 155.739 102.399 155.299 C 101.559 154.859 100.416 154.476 98.969 154.149 C 97.262 153.749 95.819 153.216 94.639 152.549 C 93.459 151.882 92.562 151.072 91.949 150.119 C 91.342 149.172 91.039 148.082 91.039 146.849 C 91.039 145.549 91.382 144.386 92.069 143.359 C 92.762 142.339 93.722 141.532 94.949 140.939 C 96.182 140.346 97.619 140.049 99.259 140.049 C 100.999 140.049 102.539 140.312 103.879 140.839 C 105.219 141.372 106.322 142.016 107.189 142.769 L 107.189 147.739 L 104.569 147.739 L 104.009 144.179 C 103.496 143.772 102.859 143.432 102.099 143.159 C 101.332 142.886 100.386 142.749 99.259 142.749 C 98.299 142.749 97.456 142.916 96.729 143.249 C 96.002 143.589 95.432 144.059 95.019 144.659 C 94.612 145.266 94.409 145.979 94.409 146.799 C 94.409 147.519 94.592 148.146 94.959 148.679 C 95.332 149.212 95.936 149.682 96.769 150.089 C 97.609 150.496 98.729 150.876 100.129 151.229 C 102.749 151.876 104.736 152.832 106.089 154.099 C 107.436 155.372 108.109 156.942 108.109 158.809 C 108.109 160.142 107.752 161.326 107.039 162.359 C 106.319 163.392 105.306 164.199 103.999 164.779 C 102.699 165.359 101.166 165.649 99.399 165.649 Z M 123.246 165.649 C 121.54 165.649 120.013 165.312 118.666 164.639 C 117.326 163.966 116.266 163.006 115.486 161.759 C 114.713 160.512 114.326 159.016 114.326 157.269 L 114.326 143.059 L 111.546 142.579 L 111.546 140.409 L 120.476 140.409 L 120.476 142.579 L 117.696 143.059 L 117.696 157.269 C 117.696 158.516 117.933 159.559 118.406 160.399 C 118.88 161.246 119.536 161.882 120.376 162.309 C 121.223 162.736 122.196 162.949 123.296 162.949 C 124.416 162.949 125.406 162.739 126.266 162.319 C 127.126 161.892 127.8 161.259 128.286 160.419 C 128.766 159.572 129.006 158.522 129.006 157.269 L 129.006 143.059 L 126.226 142.579 L 126.226 140.409 L 135.156 140.409 L 135.156 142.579 L 132.376 143.059 L 132.376 157.269 C 132.376 159.076 131.996 160.602 131.236 161.849 C 130.483 163.096 129.423 164.039 128.056 164.679 C 126.683 165.326 125.08 165.649 123.246 165.649 Z M 156.363 165.289 L 138.433 165.289 L 138.433 163.139 L 141.223 162.659 L 141.223 143.059 L 138.433 142.579 L 138.433 140.409 L 141.223 140.409 L 144.593 140.409 L 147.373 140.409 L 147.373 142.579 L 144.593 143.059 L 144.593 162.709 L 153.393 162.709 L 153.783 158.779 L 156.363 158.779 L 156.363 165.289 Z M 170.19 165.289 L 161.25 165.289 L 161.25 163.139 L 164.04 162.659 L 164.04 142.949 L 158.4 142.949 L 157.9 146.409 L 155.37 146.409 L 155.37 140.409 L 176.05 140.409 L 176.05 146.409 L 173.55 146.409 L 173.04 142.949 L 167.4 142.949 L 167.4 162.659 L 170.19 163.139 L 170.19 165.289 Z M 188.775 165.289 L 179.835 165.289 L 179.835 163.139 L 182.625 162.659 L 182.625 143.059 L 179.835 142.579 L 179.835 140.409 L 188.775 140.409 L 188.775 142.579 L 185.995 143.059 L 185.995 162.659 L 188.775 163.139 L 188.775 165.289 Z M 201.22 165.289 L 192.28 165.289 L 192.28 163.139 L 195.06 162.659 L 195.06 143.059 L 192.28 142.579 L 192.28 140.409 L 195.06 140.409 L 198.46 140.409 L 210.67 159.799 L 210.77 159.769 L 210.77 143.059 L 207.71 142.579 L 207.71 140.409 L 213.86 140.409 L 216.65 140.409 L 216.65 142.579 L 213.86 143.059 L 213.86 165.289 L 210.79 165.289 L 198.26 145.789 L 198.16 145.819 L 198.16 162.659 L 201.22 163.139 L 201.22 165.289 Z M 231.373 165.649 C 229.073 165.649 227.08 165.116 225.393 164.049 C 223.707 162.982 222.407 161.506 221.493 159.619 C 220.587 157.726 220.133 155.536 220.133 153.049 L 220.133 152.639 C 220.133 150.132 220.59 147.939 221.503 146.059 C 222.423 144.172 223.68 142.699 225.273 141.639 C 226.867 140.579 228.68 140.049 230.713 140.049 C 232.647 140.049 234.29 140.269 235.643 140.709 C 236.99 141.156 238.143 141.756 239.103 142.509 L 239.103 147.529 L 236.333 147.529 L 235.973 143.929 C 235.413 143.562 234.73 143.286 233.923 143.099 C 233.117 142.912 232.16 142.819 231.053 142.819 C 229.627 142.819 228.343 143.229 227.203 144.049 C 226.063 144.869 225.163 146.009 224.503 147.469 C 223.843 148.936 223.513 150.649 223.513 152.609 L 223.513 153.049 C 223.513 155.036 223.82 156.766 224.433 158.239 C 225.04 159.712 225.93 160.859 227.103 161.679 C 228.277 162.492 229.7 162.899 231.373 162.899 C 232.513 162.899 233.477 162.799 234.263 162.599 C 235.05 162.399 235.747 162.139 236.353 161.819 L 236.353 155.979 L 231.583 155.809 L 231.583 153.329 L 239.713 153.329 L 239.713 162.969 C 239 163.636 237.973 164.249 236.633 164.809 C 235.293 165.369 233.54 165.649 231.373 165.649 Z" style="fill: rgb(89, 165, 216); text-transform: uppercase; white-space: pre;"/>
</svg>